<?xml version="1.0" encoding="iso-8859-1"?>
<!-- Generator: Adobe Illustrator 18.1.1, SVG Export Plug-In . SVG Version: 6.00 Build 0)  -->
<svg version="1.1" id="Capa_1" xmlns="http://www.w3.org/2000/svg" xmlns:xlink="http://www.w3.org/1999/xlink" x="0px" y="0px"
	 viewBox="0 0 469.35 469.35" style="enable-background:new 0 0 469.35 469.35;" xml:space="preserve">
<g>
	<g>
		<path style="fill:#010002;" d="M11.305,91.198l6.178,6.178c-16.834,44.26-7.519,96.185,28.133,131.837l194.517,194.517
			c24.215,24.215,55.957,36.327,87.699,36.327c14.989,0,29.946-2.796,44.138-8.194l6.186,6.186
			c17.728,17.728,49.983,14.217,72.044-7.844c22.061-22.061,25.573-54.315,7.844-72.044l-10.421-10.421
			c10.884-41.277,0.26-87.049-32.1-119.409L221.006,53.814c-24.215-24.215-55.957-36.327-87.699-36.327
			c-10.673,0-21.321,1.488-31.71,4.227L91.184,11.302C73.456-6.427,41.202-2.915,19.141,19.146
			C-2.904,41.215-6.424,73.469,11.305,91.198z M327.832,435.67c-26.613,0-51.633-10.364-70.458-29.182L62.856,211.972
			c-18.818-18.818-29.182-43.837-29.182-70.458c0-8.47,1.162-16.745,3.203-24.743l315.698,315.698
			C344.577,434.508,336.302,435.67,327.832,435.67z M133.315,41.873c26.613,0,51.633,10.364,70.458,29.182L398.29,265.572
			c18.818,18.818,29.182,43.837,29.182,70.458c0,3.674-0.244,7.316-0.634,10.917l-304.44-304.44
			C125.999,42.117,129.641,41.873,133.315,41.873z M34.813,51.107c5.17-0.658,10.201-1.065,15.103-1.179
			c12.412-0.301,23.914,1.227,34.238,4.975c18.265,6.633,32.864,20.232,42.35,43.09c7.657,18.444,4.845,48.804,33.14,54.478
			c10.128,2.032,22.947,3.764,31.701,10.031c17.33,12.412,30.588,26.085,34.985,47.796c7.616,37.546,23.207,61.249,62.549,68.979
			c16.729,3.284,37.497,6.844,49.666,20.321c14.599,16.176,22.345,35.522,27.857,56.437c7.072,26.816,16.842,35.4,42.041,38.383
			c2.65,0.317,5.406,0.585,8.413,0.788c7.763,0.528,11.681,6.836,11.73,12.908c0.041,5.446-3.04,10.681-9.267,11.404
			c-0.78,0.089-1.593,0.138-2.471,0.081c-10.746-0.732-20.338-2.008-28.84-4.284c-21.565-5.763-35.985-18.119-43.228-45.601
			c-8.511-32.279-18.403-58.282-54.34-65.337c-18.915-3.715-39.407-7.82-54.437-20.939c-18.671-16.306-26.548-33.904-31.409-57.875
			c-8.779-43.301-39.846-42.716-73.043-57.176c-24.142-10.518-16.867-35.701-24.678-54.535
			C95.932,87.483,81.292,76.566,59.629,74.615c-7.405-0.667-15.631-0.293-24.817,0.878c-2.357,0.301-4.3-0.057-5.934-0.788
			C19.694,70.567,21.758,52.782,34.813,51.107z"/>
	</g>
</g>
<g>
</g>
<g>
</g>
<g>
</g>
<g>
</g>
<g>
</g>
<g>
</g>
<g>
</g>
<g>
</g>
<g>
</g>
<g>
</g>
<g>
</g>
<g>
</g>
<g>
</g>
<g>
</g>
<g>
</g>
</svg>
